<svg xmlns="http://www.w3.org/2000/svg" xmlns:xlink="http://www.w3.org/1999/xlink" width="500" zoomAndPan="magnify" viewBox="0 0 375 374.999991" height="500" preserveAspectRatio="xMidYMid meet" version="1.0"><path fill="#000000" d="M 187.5 0 C 84.023438 0 0 84.015625 0 187.5 C 0 290.984375 84.023438 375 187.5 375 C 290.976562 375 375 290.984375 375 187.5 C 375 84.015625 290.976562 0 187.5 0 Z M 187.5 9.742188 C 285.609375 9.742188 365.257812 89.390625 365.257812 187.5 C 365.257812 285.609375 285.609375 365.257812 187.5 365.257812 C 89.390625 365.257812 9.738281 285.609375 9.738281 187.5 C 9.738281 89.390625 89.390625 9.742188 187.5 9.742188 Z M 187.5 30.4375 C 100.8125 30.4375 30.4375 100.816406 30.4375 187.5 C 30.4375 274.183594 100.8125 344.5625 187.5 344.5625 C 274.1875 344.5625 344.5625 274.183594 344.5625 187.5 C 344.5625 100.816406 274.1875 30.4375 187.5 30.4375 Z M 187.5 40.179688 C 268.808594 40.179688 334.820312 106.191406 334.820312 187.5 C 334.820312 268.808594 268.808594 334.820312 187.5 334.820312 C 106.191406 334.820312 40.179688 268.808594 40.179688 187.5 C 40.179688 106.191406 106.191406 40.179688 187.5 40.179688 Z M 166.460938 165.535156 L 166.460938 139.890625 C 166.460938 133.839844 161.554688 128.933594 155.503906 128.933594 L 143.328125 128.933594 C 137.277344 128.933594 132.371094 133.839844 132.371094 139.890625 L 132.371094 235.109375 C 132.371094 241.160156 137.277344 246.066406 143.328125 246.066406 L 155.503906 246.066406 C 161.554688 246.066406 166.460938 241.160156 166.460938 235.109375 C 166.460938 228.445312 166.460938 217.621094 166.460938 209.464844 C 166.460938 209.023438 166.691406 208.617188 167.082031 208.402344 C 167.472656 208.1875 167.945312 208.199219 168.324219 208.433594 L 225.863281 244.402344 C 229.25 246.515625 233.5 246.625 236.992188 244.695312 C 240.476562 242.765625 242.628906 239.09375 242.628906 235.109375 L 242.628906 139.890625 C 242.628906 135.90625 240.476562 132.234375 236.992188 130.304688 C 233.5 128.375 229.25 128.484375 225.863281 130.597656 C 225.863281 130.597656 186.695312 155.078125 168.324219 166.566406 C 167.945312 166.800781 167.472656 166.8125 167.082031 166.597656 C 166.691406 166.382812 166.460938 165.976562 166.460938 165.535156 Z M 156.71875 165.535156 C 156.71875 169.515625 158.875 173.183594 162.359375 175.117188 C 165.851562 177.046875 170.101562 176.9375 173.484375 174.824219 C 191.859375 163.339844 231.027344 138.855469 231.027344 138.855469 C 231.402344 138.625 231.878906 138.609375 232.269531 138.824219 C 232.660156 139.039062 232.890625 139.449219 232.890625 139.890625 C 232.890625 139.890625 232.890625 235.109375 232.890625 235.109375 C 232.890625 235.550781 232.660156 235.960938 232.269531 236.175781 C 231.878906 236.390625 231.402344 236.375 231.027344 236.144531 C 231.027344 236.144531 191.859375 211.660156 173.484375 200.175781 C 170.101562 198.0625 165.851562 197.953125 162.359375 199.882812 C 158.875 201.816406 156.71875 205.484375 156.71875 209.464844 C 156.71875 217.621094 156.71875 228.445312 156.71875 235.109375 C 156.71875 235.78125 156.171875 236.328125 155.503906 236.328125 C 155.503906 236.328125 143.328125 236.328125 143.328125 236.328125 C 142.644531 236.328125 142.109375 235.78125 142.109375 235.109375 C 142.109375 235.109375 142.109375 139.890625 142.109375 139.890625 C 142.109375 139.21875 142.644531 138.671875 143.328125 138.671875 C 143.328125 138.671875 155.503906 138.671875 155.503906 138.671875 C 156.171875 138.671875 156.71875 139.21875 156.71875 139.890625 Z M 156.71875 165.535156 " fill-opacity="1" fill-rule="evenodd"/></svg>